<svg xmlns="http://www.w3.org/2000/svg" width="862" height="1050" viewBox="0 0 862 1050" font-family="system-ui,-apple-system,sans-serif">
<rect width="862" height="1050" fill="#ffffff"/>
<text x="24" y="40" font-size="24" font-weight="700" fill="#263238">NU54V-DK</text>
<text x="24" y="64" font-size="13" fill="#546e7a">nRF54L15 · 확장 헤더 핀아웃</text>
<text x="24" y="84" font-size="11" fill="#b71c1c">회로도에서 생성 · 전원/GND 는 실물 통전 확인 · P4 는 도면과 18행 일치 · P2 핀 번호는 실크스크린 미대조</text>
<rect x="306" y="110" width="250" height="800" rx="10" fill="#1b5e20" opacity="0.08" stroke="#1b5e20" stroke-opacity="0.35"/>
<text x="431.0" y="146" text-anchor="middle" font-size="15" font-weight="600" fill="#1b5e20">NU54V-DK</text>
<text x="322" y="190" font-size="12" font-weight="600" fill="#1b5e20">USB-C + 온보드 CMSIS-DAP</text>
<text x="322" y="206" font-size="10" fill="#37474f">시리얼 포트 2개로 잡힌다</text>
<text x="322" y="236" font-size="12" font-weight="600" fill="#1b5e20">Qwiic (J5)</text>
<text x="322" y="252" font-size="10" fill="#37474f">P1.02 SDA / P1.03 SCL · 2.1K 풀업</text>
<text x="322" y="282" font-size="12" font-weight="600" fill="#1b5e20">BQ25186 충전기</text>
<text x="322" y="298" font-size="10" fill="#37474f">Wire 버스의 0x6A · 배터리 전압은 A5</text>
<text x="322" y="328" font-size="12" font-weight="600" fill="#1b5e20">J1 점퍼</text>
<text x="322" y="344" font-size="10" fill="#37474f">빼고 전류계를 물리면 모듈 전류만 측정</text>
<text x="322" y="374" font-size="12" font-weight="600" fill="#1b5e20">LED1~4 / SW1~4</text>
<text x="322" y="390" font-size="10" fill="#37474f">LED active HIGH · 버튼은 내부 풀업</text>
<text x="24" y="124" text-anchor="start" font-size="13" font-weight="700" fill="#263238">P4 헤더</text>
<rect x="24" y="136" width="30" height="20" rx="4" fill="#eceff1"/><text x="39.0" y="150.0" text-anchor="middle" font-family="ui-monospace,Menlo,Consolas,monospace" font-size="11" fill="#263238">1</text>
<rect x="58" y="136" width="80" height="20" rx="4" fill="#37474f"/><text x="98.0" y="150.0" text-anchor="middle" font-family="ui-monospace,Menlo,Consolas,monospace" font-size="11" fill="#ffffff">GND</text>
<rect x="142" y="136" width="150" height="20" rx="4" fill="#37474f"/><text x="150" y="150.0" text-anchor="start" font-family="ui-monospace,Menlo,Consolas,monospace" font-size="11" fill="#ffffff">GND</text>
<rect x="24" y="162" width="30" height="20" rx="4" fill="#eceff1"/><text x="39.0" y="176.0" text-anchor="middle" font-family="ui-monospace,Menlo,Consolas,monospace" font-size="11" fill="#263238">2</text>
<rect x="58" y="162" width="80" height="20" rx="4" fill="#37474f"/><text x="98.0" y="176.0" text-anchor="middle" font-family="ui-monospace,Menlo,Consolas,monospace" font-size="11" fill="#ffffff">GND</text>
<rect x="142" y="162" width="150" height="20" rx="4" fill="#37474f"/><text x="150" y="176.0" text-anchor="start" font-family="ui-monospace,Menlo,Consolas,monospace" font-size="11" fill="#ffffff">GND</text>
<rect x="24" y="188" width="30" height="20" rx="4" fill="#eceff1"/><text x="39.0" y="202.0" text-anchor="middle" font-family="ui-monospace,Menlo,Consolas,monospace" font-size="11" fill="#263238">3</text>
<rect x="58" y="188" width="80" height="20" rx="4" fill="#9e9e9e"/><text x="98.0" y="202.0" text-anchor="middle" font-family="ui-monospace,Menlo,Consolas,monospace" font-size="11" fill="#ffffff">MOD_RST</text>
<rect x="142" y="188" width="150" height="20" rx="4" fill="#9e9e9e"/><text x="150" y="202.0" text-anchor="start" font-family="ui-monospace,Menlo,Consolas,monospace" font-size="11" fill="#ffffff">MOD_RST</text>
<rect x="24" y="214" width="30" height="20" rx="4" fill="#eceff1"/><text x="39.0" y="228.0" text-anchor="middle" font-family="ui-monospace,Menlo,Consolas,monospace" font-size="11" fill="#263238">4</text>
<rect x="58" y="214" width="80" height="20" rx="4" fill="#ef6c00"/><text x="98.0" y="228.0" text-anchor="middle" font-family="ui-monospace,Menlo,Consolas,monospace" font-size="11" fill="#ffffff">P0.02</text>
<rect x="142" y="214" width="150" height="20" rx="4" fill="#ef6c00"/><text x="150" y="228.0" text-anchor="start" font-family="ui-monospace,Menlo,Consolas,monospace" font-size="11" fill="#ffffff">Serial CTS</text>
<rect x="24" y="240" width="30" height="20" rx="4" fill="#eceff1"/><text x="39.0" y="254.0" text-anchor="middle" font-family="ui-monospace,Menlo,Consolas,monospace" font-size="11" fill="#263238">5</text>
<rect x="58" y="240" width="80" height="20" rx="4" fill="#ef6c00"/><text x="98.0" y="254.0" text-anchor="middle" font-family="ui-monospace,Menlo,Consolas,monospace" font-size="11" fill="#ffffff">P0.03</text>
<rect x="142" y="240" width="150" height="20" rx="4" fill="#ef6c00"/><text x="150" y="254.0" text-anchor="start" font-family="ui-monospace,Menlo,Consolas,monospace" font-size="11" fill="#ffffff">Serial RTS</text>
<rect x="24" y="266" width="30" height="20" rx="4" fill="#eceff1"/><text x="39.0" y="280.0" text-anchor="middle" font-family="ui-monospace,Menlo,Consolas,monospace" font-size="11" fill="#263238">6</text>
<rect x="58" y="266" width="80" height="20" rx="4" fill="#00838f"/><text x="98.0" y="280.0" text-anchor="middle" font-family="ui-monospace,Menlo,Consolas,monospace" font-size="11" fill="#ffffff">P0.04</text>
<rect x="142" y="266" width="150" height="20" rx="4" fill="#00838f"/><text x="150" y="280.0" text-anchor="start" font-family="ui-monospace,Menlo,Consolas,monospace" font-size="11" fill="#ffffff">SW4</text>
<rect x="24" y="292" width="30" height="20" rx="4" fill="#eceff1"/><text x="39.0" y="306.0" text-anchor="middle" font-family="ui-monospace,Menlo,Consolas,monospace" font-size="11" fill="#263238">7</text>
<rect x="58" y="292" width="80" height="20" rx="4" fill="#00838f"/><text x="98.0" y="306.0" text-anchor="middle" font-family="ui-monospace,Menlo,Consolas,monospace" font-size="11" fill="#ffffff">P1.09</text>
<rect x="142" y="292" width="150" height="20" rx="4" fill="#00838f"/><text x="150" y="306.0" text-anchor="start" font-family="ui-monospace,Menlo,Consolas,monospace" font-size="11" fill="#ffffff">SW2</text>
<rect x="24" y="318" width="30" height="20" rx="4" fill="#eceff1"/><text x="39.0" y="332.0" text-anchor="middle" font-family="ui-monospace,Menlo,Consolas,monospace" font-size="11" fill="#263238">8</text>
<rect x="58" y="318" width="80" height="20" rx="4" fill="#00838f"/><text x="98.0" y="332.0" text-anchor="middle" font-family="ui-monospace,Menlo,Consolas,monospace" font-size="11" fill="#ffffff">P1.10</text>
<rect x="142" y="318" width="150" height="20" rx="4" fill="#00838f"/><text x="150" y="332.0" text-anchor="start" font-family="ui-monospace,Menlo,Consolas,monospace" font-size="11" fill="#ffffff">LED2</text>
<rect x="24" y="344" width="30" height="20" rx="4" fill="#eceff1"/><text x="39.0" y="358.0" text-anchor="middle" font-family="ui-monospace,Menlo,Consolas,monospace" font-size="11" fill="#263238">9</text>
<rect x="58" y="344" width="80" height="20" rx="4" fill="#9e9e9e"/><text x="98.0" y="358.0" text-anchor="middle" font-family="ui-monospace,Menlo,Consolas,monospace" font-size="11" fill="#ffffff">P1.11</text>
<rect x="142" y="344" width="150" height="20" rx="4" fill="#9e9e9e"/><text x="150" y="358.0" text-anchor="start" font-family="ui-monospace,Menlo,Consolas,monospace" font-size="11" fill="#ffffff">A4 / PMIC INT</text>
<rect x="24" y="370" width="30" height="20" rx="4" fill="#eceff1"/><text x="39.0" y="384.0" text-anchor="middle" font-family="ui-monospace,Menlo,Consolas,monospace" font-size="11" fill="#263238">10</text>
<rect x="58" y="370" width="80" height="20" rx="4" fill="#9e9e9e"/><text x="98.0" y="384.0" text-anchor="middle" font-family="ui-monospace,Menlo,Consolas,monospace" font-size="11" fill="#ffffff">P1.12</text>
<rect x="142" y="370" width="150" height="20" rx="4" fill="#9e9e9e"/><text x="150" y="384.0" text-anchor="start" font-family="ui-monospace,Menlo,Consolas,monospace" font-size="11" fill="#ffffff">A5 / VBAT_MON</text>
<rect x="24" y="396" width="30" height="20" rx="4" fill="#eceff1"/><text x="39.0" y="410.0" text-anchor="middle" font-family="ui-monospace,Menlo,Consolas,monospace" font-size="11" fill="#263238">11</text>
<rect x="58" y="396" width="80" height="20" rx="4" fill="#00838f"/><text x="98.0" y="410.0" text-anchor="middle" font-family="ui-monospace,Menlo,Consolas,monospace" font-size="11" fill="#ffffff">P1.13</text>
<rect x="142" y="396" width="150" height="20" rx="4" fill="#00838f"/><text x="150" y="410.0" text-anchor="start" font-family="ui-monospace,Menlo,Consolas,monospace" font-size="11" fill="#ffffff">SW1 / A6</text>
<rect x="24" y="422" width="30" height="20" rx="4" fill="#eceff1"/><text x="39.0" y="436.0" text-anchor="middle" font-family="ui-monospace,Menlo,Consolas,monospace" font-size="11" fill="#263238">12</text>
<rect x="58" y="422" width="80" height="20" rx="4" fill="#00838f"/><text x="98.0" y="436.0" text-anchor="middle" font-family="ui-monospace,Menlo,Consolas,monospace" font-size="11" fill="#ffffff">P1.14</text>
<rect x="142" y="422" width="150" height="20" rx="4" fill="#00838f"/><text x="150" y="436.0" text-anchor="start" font-family="ui-monospace,Menlo,Consolas,monospace" font-size="11" fill="#ffffff">LED4 / A7</text>
<rect x="24" y="448" width="30" height="20" rx="4" fill="#eceff1"/><text x="39.0" y="462.0" text-anchor="middle" font-family="ui-monospace,Menlo,Consolas,monospace" font-size="11" fill="#263238">13</text>
<rect x="58" y="448" width="80" height="20" rx="4" fill="#37474f"/><text x="98.0" y="462.0" text-anchor="middle" font-family="ui-monospace,Menlo,Consolas,monospace" font-size="11" fill="#ffffff">GND</text>
<rect x="142" y="448" width="150" height="20" rx="4" fill="#37474f"/><text x="150" y="462.0" text-anchor="start" font-family="ui-monospace,Menlo,Consolas,monospace" font-size="11" fill="#ffffff">GND</text>
<rect x="24" y="474" width="30" height="20" rx="4" fill="#eceff1"/><text x="39.0" y="488.0" text-anchor="middle" font-family="ui-monospace,Menlo,Consolas,monospace" font-size="11" fill="#263238">14</text>
<rect x="58" y="474" width="80" height="20" rx="4" fill="#eceff1" stroke="#90a4ae" stroke-width="1" stroke-dasharray="3 2"/><text x="98.0" y="488.0" text-anchor="middle" font-family="ui-monospace,Menlo,Consolas,monospace" font-size="11" fill="#78909c">P1.00</text>
<rect x="142" y="474" width="150" height="20" rx="4" fill="#eceff1" stroke="#90a4ae" stroke-width="1" stroke-dasharray="3 2"/><text x="150" y="488.0" text-anchor="start" font-family="ui-monospace,Menlo,Consolas,monospace" font-size="11" fill="#78909c">SB20 미실장 — 미연결</text>
<rect x="24" y="500" width="30" height="20" rx="4" fill="#eceff1"/><text x="39.0" y="514.0" text-anchor="middle" font-family="ui-monospace,Menlo,Consolas,monospace" font-size="11" fill="#263238">15</text>
<rect x="58" y="500" width="80" height="20" rx="4" fill="#eceff1" stroke="#90a4ae" stroke-width="1" stroke-dasharray="3 2"/><text x="98.0" y="514.0" text-anchor="middle" font-family="ui-monospace,Menlo,Consolas,monospace" font-size="11" fill="#78909c">P1.01</text>
<rect x="142" y="500" width="150" height="20" rx="4" fill="#eceff1" stroke="#90a4ae" stroke-width="1" stroke-dasharray="3 2"/><text x="150" y="514.0" text-anchor="start" font-family="ui-monospace,Menlo,Consolas,monospace" font-size="11" fill="#78909c">SB21 미실장 — 미연결</text>
<rect x="24" y="526" width="30" height="20" rx="4" fill="#eceff1"/><text x="39.0" y="540.0" text-anchor="middle" font-family="ui-monospace,Menlo,Consolas,monospace" font-size="11" fill="#263238">16</text>
<rect x="58" y="526" width="80" height="20" rx="4" fill="#2e7d32"/><text x="98.0" y="540.0" text-anchor="middle" font-family="ui-monospace,Menlo,Consolas,monospace" font-size="11" fill="#ffffff">P1.02</text>
<rect x="142" y="526" width="150" height="20" rx="4" fill="#2e7d32"/><text x="150" y="540.0" text-anchor="start" font-family="ui-monospace,Menlo,Consolas,monospace" font-size="11" fill="#ffffff">Qwiic SDA</text>
<rect x="24" y="552" width="30" height="20" rx="4" fill="#eceff1"/><text x="39.0" y="566.0" text-anchor="middle" font-family="ui-monospace,Menlo,Consolas,monospace" font-size="11" fill="#263238">17</text>
<rect x="58" y="552" width="80" height="20" rx="4" fill="#2e7d32"/><text x="98.0" y="566.0" text-anchor="middle" font-family="ui-monospace,Menlo,Consolas,monospace" font-size="11" fill="#ffffff">P1.03</text>
<rect x="142" y="552" width="150" height="20" rx="4" fill="#2e7d32"/><text x="150" y="566.0" text-anchor="start" font-family="ui-monospace,Menlo,Consolas,monospace" font-size="11" fill="#ffffff">Qwiic SCL</text>
<rect x="24" y="578" width="30" height="20" rx="4" fill="#eceff1"/><text x="39.0" y="592.0" text-anchor="middle" font-family="ui-monospace,Menlo,Consolas,monospace" font-size="11" fill="#263238">18</text>
<rect x="58" y="578" width="80" height="20" rx="4" fill="#37474f"/><text x="98.0" y="592.0" text-anchor="middle" font-family="ui-monospace,Menlo,Consolas,monospace" font-size="11" fill="#ffffff">GND</text>
<rect x="142" y="578" width="150" height="20" rx="4" fill="#37474f"/><text x="150" y="592.0" text-anchor="start" font-family="ui-monospace,Menlo,Consolas,monospace" font-size="11" fill="#ffffff">GND</text>
<rect x="24" y="604" width="30" height="20" rx="4" fill="#eceff1"/><text x="39.0" y="618.0" text-anchor="middle" font-family="ui-monospace,Menlo,Consolas,monospace" font-size="11" fill="#263238">19</text>
<rect x="58" y="604" width="80" height="20" rx="4" fill="#eceff1"/><text x="98.0" y="618.0" text-anchor="middle" font-family="ui-monospace,Menlo,Consolas,monospace" font-size="11" fill="#263238">P2.00</text>
<rect x="142" y="604" width="150" height="20" rx="4" fill="#eceff1"/><text x="150" y="618.0" text-anchor="start" font-family="ui-monospace,Menlo,Consolas,monospace" font-size="11" fill="#263238"></text>
<rect x="24" y="630" width="30" height="20" rx="4" fill="#eceff1"/><text x="39.0" y="644.0" text-anchor="middle" font-family="ui-monospace,Menlo,Consolas,monospace" font-size="11" fill="#263238">20</text>
<rect x="58" y="630" width="80" height="20" rx="4" fill="#6a1b9a"/><text x="98.0" y="644.0" text-anchor="middle" font-family="ui-monospace,Menlo,Consolas,monospace" font-size="11" fill="#ffffff">P2.01</text>
<rect x="142" y="630" width="150" height="20" rx="4" fill="#6a1b9a"/><text x="150" y="644.0" text-anchor="start" font-family="ui-monospace,Menlo,Consolas,monospace" font-size="11" fill="#ffffff">SPI SCK</text>
<rect x="24" y="656" width="30" height="20" rx="4" fill="#eceff1"/><text x="39.0" y="670.0" text-anchor="middle" font-family="ui-monospace,Menlo,Consolas,monospace" font-size="11" fill="#263238">21</text>
<rect x="58" y="656" width="80" height="20" rx="4" fill="#6a1b9a"/><text x="98.0" y="670.0" text-anchor="middle" font-family="ui-monospace,Menlo,Consolas,monospace" font-size="11" fill="#ffffff">P2.02</text>
<rect x="142" y="656" width="150" height="20" rx="4" fill="#6a1b9a"/><text x="150" y="670.0" text-anchor="start" font-family="ui-monospace,Menlo,Consolas,monospace" font-size="11" fill="#ffffff">SPI MOSI</text>
<rect x="24" y="682" width="30" height="20" rx="4" fill="#eceff1"/><text x="39.0" y="696.0" text-anchor="middle" font-family="ui-monospace,Menlo,Consolas,monospace" font-size="11" fill="#263238">22</text>
<rect x="58" y="682" width="80" height="20" rx="4" fill="#eceff1"/><text x="98.0" y="696.0" text-anchor="middle" font-family="ui-monospace,Menlo,Consolas,monospace" font-size="11" fill="#263238">P2.03</text>
<rect x="142" y="682" width="150" height="20" rx="4" fill="#eceff1"/><text x="150" y="696.0" text-anchor="start" font-family="ui-monospace,Menlo,Consolas,monospace" font-size="11" fill="#263238"></text>
<rect x="24" y="708" width="30" height="20" rx="4" fill="#eceff1"/><text x="39.0" y="722.0" text-anchor="middle" font-family="ui-monospace,Menlo,Consolas,monospace" font-size="11" fill="#263238">23</text>
<rect x="58" y="708" width="80" height="20" rx="4" fill="#37474f"/><text x="98.0" y="722.0" text-anchor="middle" font-family="ui-monospace,Menlo,Consolas,monospace" font-size="11" fill="#ffffff">GND</text>
<rect x="142" y="708" width="150" height="20" rx="4" fill="#37474f"/><text x="150" y="722.0" text-anchor="start" font-family="ui-monospace,Menlo,Consolas,monospace" font-size="11" fill="#ffffff">GND</text>
<rect x="24" y="734" width="30" height="20" rx="4" fill="#eceff1"/><text x="39.0" y="748.0" text-anchor="middle" font-family="ui-monospace,Menlo,Consolas,monospace" font-size="11" fill="#263238">24</text>
<rect x="58" y="734" width="80" height="20" rx="4" fill="#37474f"/><text x="98.0" y="748.0" text-anchor="middle" font-family="ui-monospace,Menlo,Consolas,monospace" font-size="11" fill="#ffffff">GND</text>
<rect x="142" y="734" width="150" height="20" rx="4" fill="#37474f"/><text x="150" y="748.0" text-anchor="start" font-family="ui-monospace,Menlo,Consolas,monospace" font-size="11" fill="#ffffff">GND</text>
<rect x="24" y="760" width="30" height="20" rx="4" fill="#eceff1"/><text x="39.0" y="774.0" text-anchor="middle" font-family="ui-monospace,Menlo,Consolas,monospace" font-size="11" fill="#263238">25</text>
<rect x="58" y="760" width="80" height="20" rx="4" fill="#c62828"/><text x="98.0" y="774.0" text-anchor="middle" font-family="ui-monospace,Menlo,Consolas,monospace" font-size="11" fill="#ffffff">VDD_MOD</text>
<rect x="142" y="760" width="150" height="20" rx="4" fill="#c62828"/><text x="150" y="774.0" text-anchor="start" font-family="ui-monospace,Menlo,Consolas,monospace" font-size="11" fill="#ffffff">VDD_MOD</text>
<rect x="24" y="786" width="30" height="20" rx="4" fill="#eceff1"/><text x="39.0" y="800.0" text-anchor="middle" font-family="ui-monospace,Menlo,Consolas,monospace" font-size="11" fill="#263238">26</text>
<rect x="58" y="786" width="80" height="20" rx="4" fill="#c62828"/><text x="98.0" y="800.0" text-anchor="middle" font-family="ui-monospace,Menlo,Consolas,monospace" font-size="11" fill="#ffffff">VDD_3V3_SYS</text>
<rect x="142" y="786" width="150" height="20" rx="4" fill="#c62828"/><text x="150" y="800.0" text-anchor="start" font-family="ui-monospace,Menlo,Consolas,monospace" font-size="11" fill="#ffffff">VDD_3V3_SYS</text>
<rect x="24" y="812" width="30" height="20" rx="4" fill="#eceff1"/><text x="39.0" y="826.0" text-anchor="middle" font-family="ui-monospace,Menlo,Consolas,monospace" font-size="11" fill="#263238">27</text>
<rect x="58" y="812" width="80" height="20" rx="4" fill="#c62828"/><text x="98.0" y="826.0" text-anchor="middle" font-family="ui-monospace,Menlo,Consolas,monospace" font-size="11" fill="#ffffff">VBAT</text>
<rect x="142" y="812" width="150" height="20" rx="4" fill="#c62828"/><text x="150" y="826.0" text-anchor="start" font-family="ui-monospace,Menlo,Consolas,monospace" font-size="11" fill="#ffffff">VBAT</text>
<rect x="24" y="838" width="30" height="20" rx="4" fill="#eceff1"/><text x="39.0" y="852.0" text-anchor="middle" font-family="ui-monospace,Menlo,Consolas,monospace" font-size="11" fill="#263238">28</text>
<rect x="58" y="838" width="80" height="20" rx="4" fill="#37474f"/><text x="98.0" y="852.0" text-anchor="middle" font-family="ui-monospace,Menlo,Consolas,monospace" font-size="11" fill="#ffffff">GND</text>
<rect x="142" y="838" width="150" height="20" rx="4" fill="#37474f"/><text x="150" y="852.0" text-anchor="start" font-family="ui-monospace,Menlo,Consolas,monospace" font-size="11" fill="#ffffff">GND</text>
<rect x="24" y="864" width="30" height="20" rx="4" fill="#eceff1"/><text x="39.0" y="878.0" text-anchor="middle" font-family="ui-monospace,Menlo,Consolas,monospace" font-size="11" fill="#263238">29</text>
<rect x="58" y="864" width="80" height="20" rx="4" fill="#c62828"/><text x="98.0" y="878.0" text-anchor="middle" font-family="ui-monospace,Menlo,Consolas,monospace" font-size="11" fill="#ffffff">VEXT</text>
<rect x="142" y="864" width="150" height="20" rx="4" fill="#c62828"/><text x="150" y="878.0" text-anchor="start" font-family="ui-monospace,Menlo,Consolas,monospace" font-size="11" fill="#ffffff">VEXT</text>
<rect x="24" y="890" width="30" height="20" rx="4" fill="#eceff1"/><text x="39.0" y="904.0" text-anchor="middle" font-family="ui-monospace,Menlo,Consolas,monospace" font-size="11" fill="#263238">30</text>
<rect x="58" y="890" width="80" height="20" rx="4" fill="#c62828"/><text x="98.0" y="904.0" text-anchor="middle" font-family="ui-monospace,Menlo,Consolas,monospace" font-size="11" fill="#ffffff">VBUS</text>
<rect x="142" y="890" width="150" height="20" rx="4" fill="#c62828"/><text x="150" y="904.0" text-anchor="start" font-family="ui-monospace,Menlo,Consolas,monospace" font-size="11" fill="#ffffff">VBUS</text>
<text x="838" y="124" text-anchor="end" font-size="13" font-weight="700" fill="#263238">P2 헤더</text>
<rect x="808" y="136" width="30" height="20" rx="4" fill="#eceff1"/><text x="823.0" y="150.0" text-anchor="middle" font-family="ui-monospace,Menlo,Consolas,monospace" font-size="11" fill="#263238">30</text>
<rect x="724" y="136" width="80" height="20" rx="4" fill="#37474f"/><text x="764.0" y="150.0" text-anchor="middle" font-family="ui-monospace,Menlo,Consolas,monospace" font-size="11" fill="#ffffff">GND</text>
<rect x="570" y="136" width="150" height="20" rx="4" fill="#37474f"/><text x="578" y="150.0" text-anchor="start" font-family="ui-monospace,Menlo,Consolas,monospace" font-size="11" fill="#ffffff">GND</text>
<rect x="808" y="162" width="30" height="20" rx="4" fill="#eceff1"/><text x="823.0" y="176.0" text-anchor="middle" font-family="ui-monospace,Menlo,Consolas,monospace" font-size="11" fill="#263238">29</text>
<rect x="724" y="162" width="80" height="20" rx="4" fill="#c62828"/><text x="764.0" y="176.0" text-anchor="middle" font-family="ui-monospace,Menlo,Consolas,monospace" font-size="11" fill="#ffffff">VDD_MOD</text>
<rect x="570" y="162" width="150" height="20" rx="4" fill="#c62828"/><text x="578" y="176.0" text-anchor="start" font-family="ui-monospace,Menlo,Consolas,monospace" font-size="11" fill="#ffffff">VDD_MOD</text>
<rect x="808" y="188" width="30" height="20" rx="4" fill="#eceff1"/><text x="823.0" y="202.0" text-anchor="middle" font-family="ui-monospace,Menlo,Consolas,monospace" font-size="11" fill="#263238">28</text>
<rect x="724" y="188" width="80" height="20" rx="4" fill="#9e9e9e"/><text x="764.0" y="202.0" text-anchor="middle" font-family="ui-monospace,Menlo,Consolas,monospace" font-size="11" fill="#ffffff">SWDIO</text>
<rect x="570" y="188" width="150" height="20" rx="4" fill="#9e9e9e"/><text x="578" y="202.0" text-anchor="start" font-family="ui-monospace,Menlo,Consolas,monospace" font-size="11" fill="#ffffff">SWDIO</text>
<rect x="808" y="214" width="30" height="20" rx="4" fill="#eceff1"/><text x="823.0" y="228.0" text-anchor="middle" font-family="ui-monospace,Menlo,Consolas,monospace" font-size="11" fill="#263238">27</text>
<rect x="724" y="214" width="80" height="20" rx="4" fill="#9e9e9e"/><text x="764.0" y="228.0" text-anchor="middle" font-family="ui-monospace,Menlo,Consolas,monospace" font-size="11" fill="#ffffff">SWDCLK</text>
<rect x="570" y="214" width="150" height="20" rx="4" fill="#9e9e9e"/><text x="578" y="228.0" text-anchor="start" font-family="ui-monospace,Menlo,Consolas,monospace" font-size="11" fill="#ffffff">SWDCLK</text>
<rect x="808" y="240" width="30" height="20" rx="4" fill="#eceff1"/><text x="823.0" y="254.0" text-anchor="middle" font-family="ui-monospace,Menlo,Consolas,monospace" font-size="11" fill="#263238">26</text>
<rect x="724" y="240" width="80" height="20" rx="4" fill="#ef6c00"/><text x="764.0" y="254.0" text-anchor="middle" font-family="ui-monospace,Menlo,Consolas,monospace" font-size="11" fill="#ffffff">P0.01</text>
<rect x="570" y="240" width="150" height="20" rx="4" fill="#ef6c00"/><text x="578" y="254.0" text-anchor="start" font-family="ui-monospace,Menlo,Consolas,monospace" font-size="11" fill="#ffffff">Serial RX</text>
<rect x="808" y="266" width="30" height="20" rx="4" fill="#eceff1"/><text x="823.0" y="280.0" text-anchor="middle" font-family="ui-monospace,Menlo,Consolas,monospace" font-size="11" fill="#263238">25</text>
<rect x="724" y="266" width="80" height="20" rx="4" fill="#ef6c00"/><text x="764.0" y="280.0" text-anchor="middle" font-family="ui-monospace,Menlo,Consolas,monospace" font-size="11" fill="#ffffff">P0.00</text>
<rect x="570" y="266" width="150" height="20" rx="4" fill="#ef6c00"/><text x="578" y="280.0" text-anchor="start" font-family="ui-monospace,Menlo,Consolas,monospace" font-size="11" fill="#ffffff">Serial TX</text>
<rect x="808" y="292" width="30" height="20" rx="4" fill="#eceff1"/><text x="823.0" y="306.0" text-anchor="middle" font-family="ui-monospace,Menlo,Consolas,monospace" font-size="11" fill="#263238">24</text>
<rect x="724" y="292" width="80" height="20" rx="4" fill="#9e9e9e"/><text x="764.0" y="306.0" text-anchor="middle" font-family="ui-monospace,Menlo,Consolas,monospace" font-size="11" fill="#ffffff">P2.10</text>
<rect x="570" y="292" width="150" height="20" rx="4" fill="#9e9e9e"/><text x="578" y="306.0" text-anchor="start" font-family="ui-monospace,Menlo,Consolas,monospace" font-size="11" fill="#ffffff">PMIC CE</text>
<rect x="808" y="318" width="30" height="20" rx="4" fill="#eceff1"/><text x="823.0" y="332.0" text-anchor="middle" font-family="ui-monospace,Menlo,Consolas,monospace" font-size="11" fill="#263238">23</text>
<rect x="724" y="318" width="80" height="20" rx="4" fill="#00838f"/><text x="764.0" y="332.0" text-anchor="middle" font-family="ui-monospace,Menlo,Consolas,monospace" font-size="11" fill="#ffffff">P2.09</text>
<rect x="570" y="318" width="150" height="20" rx="4" fill="#00838f"/><text x="578" y="332.0" text-anchor="start" font-family="ui-monospace,Menlo,Consolas,monospace" font-size="11" fill="#ffffff">LED1</text>
<rect x="808" y="344" width="30" height="20" rx="4" fill="#eceff1"/><text x="823.0" y="358.0" text-anchor="middle" font-family="ui-monospace,Menlo,Consolas,monospace" font-size="11" fill="#263238">22</text>
<rect x="724" y="344" width="80" height="20" rx="4" fill="#9e9e9e"/><text x="764.0" y="358.0" text-anchor="middle" font-family="ui-monospace,Menlo,Consolas,monospace" font-size="11" fill="#ffffff">P2.08</text>
<rect x="570" y="344" width="150" height="20" rx="4" fill="#9e9e9e"/><text x="578" y="358.0" text-anchor="start" font-family="ui-monospace,Menlo,Consolas,monospace" font-size="11" fill="#ffffff">PMIC PG</text>
<rect x="808" y="370" width="30" height="20" rx="4" fill="#eceff1"/><text x="823.0" y="384.0" text-anchor="middle" font-family="ui-monospace,Menlo,Consolas,monospace" font-size="11" fill="#263238">21</text>
<rect x="724" y="370" width="80" height="20" rx="4" fill="#9e9e9e"/><text x="764.0" y="384.0" text-anchor="middle" font-family="ui-monospace,Menlo,Consolas,monospace" font-size="11" fill="#ffffff">P2.07</text>
<rect x="570" y="370" width="150" height="20" rx="4" fill="#9e9e9e"/><text x="578" y="384.0" text-anchor="start" font-family="ui-monospace,Menlo,Consolas,monospace" font-size="11" fill="#ffffff">LED3 / SWO</text>
<rect x="808" y="396" width="30" height="20" rx="4" fill="#eceff1"/><text x="823.0" y="410.0" text-anchor="middle" font-family="ui-monospace,Menlo,Consolas,monospace" font-size="11" fill="#263238">20</text>
<rect x="724" y="396" width="80" height="20" rx="4" fill="#eceff1"/><text x="764.0" y="410.0" text-anchor="middle" font-family="ui-monospace,Menlo,Consolas,monospace" font-size="11" fill="#263238">P2.06</text>
<rect x="570" y="396" width="150" height="20" rx="4" fill="#eceff1"/><text x="578" y="410.0" text-anchor="start" font-family="ui-monospace,Menlo,Consolas,monospace" font-size="11" fill="#263238"></text>
<rect x="808" y="422" width="30" height="20" rx="4" fill="#eceff1"/><text x="823.0" y="436.0" text-anchor="middle" font-family="ui-monospace,Menlo,Consolas,monospace" font-size="11" fill="#263238">19</text>
<rect x="724" y="422" width="80" height="20" rx="4" fill="#6a1b9a"/><text x="764.0" y="436.0" text-anchor="middle" font-family="ui-monospace,Menlo,Consolas,monospace" font-size="11" fill="#ffffff">P2.05</text>
<rect x="570" y="422" width="150" height="20" rx="4" fill="#6a1b9a"/><text x="578" y="436.0" text-anchor="start" font-family="ui-monospace,Menlo,Consolas,monospace" font-size="11" fill="#ffffff">SPI SS</text>
<rect x="808" y="448" width="30" height="20" rx="4" fill="#eceff1"/><text x="823.0" y="462.0" text-anchor="middle" font-family="ui-monospace,Menlo,Consolas,monospace" font-size="11" fill="#263238">18</text>
<rect x="724" y="448" width="80" height="20" rx="4" fill="#37474f"/><text x="764.0" y="462.0" text-anchor="middle" font-family="ui-monospace,Menlo,Consolas,monospace" font-size="11" fill="#ffffff">GND</text>
<rect x="570" y="448" width="150" height="20" rx="4" fill="#37474f"/><text x="578" y="462.0" text-anchor="start" font-family="ui-monospace,Menlo,Consolas,monospace" font-size="11" fill="#ffffff">GND</text>
<rect x="808" y="474" width="30" height="20" rx="4" fill="#eceff1"/><text x="823.0" y="488.0" text-anchor="middle" font-family="ui-monospace,Menlo,Consolas,monospace" font-size="11" fill="#263238">17</text>
<rect x="724" y="474" width="80" height="20" rx="4" fill="#6a1b9a"/><text x="764.0" y="488.0" text-anchor="middle" font-family="ui-monospace,Menlo,Consolas,monospace" font-size="11" fill="#ffffff">P2.04</text>
<rect x="570" y="474" width="150" height="20" rx="4" fill="#6a1b9a"/><text x="578" y="488.0" text-anchor="start" font-family="ui-monospace,Menlo,Consolas,monospace" font-size="11" fill="#ffffff">SPI MISO</text>
<rect x="808" y="500" width="30" height="20" rx="4" fill="#eceff1"/><text x="823.0" y="514.0" text-anchor="middle" font-family="ui-monospace,Menlo,Consolas,monospace" font-size="11" fill="#263238">16</text>
<rect x="724" y="500" width="80" height="20" rx="4" fill="#00838f"/><text x="764.0" y="514.0" text-anchor="middle" font-family="ui-monospace,Menlo,Consolas,monospace" font-size="11" fill="#ffffff">P1.08</text>
<rect x="570" y="500" width="150" height="20" rx="4" fill="#00838f"/><text x="578" y="514.0" text-anchor="start" font-family="ui-monospace,Menlo,Consolas,monospace" font-size="11" fill="#ffffff">SW3</text>
<rect x="808" y="526" width="30" height="20" rx="4" fill="#eceff1"/><text x="823.0" y="540.0" text-anchor="middle" font-family="ui-monospace,Menlo,Consolas,monospace" font-size="11" fill="#263238">15</text>
<rect x="724" y="526" width="80" height="20" rx="4" fill="#37474f"/><text x="764.0" y="540.0" text-anchor="middle" font-family="ui-monospace,Menlo,Consolas,monospace" font-size="11" fill="#ffffff">GND</text>
<rect x="570" y="526" width="150" height="20" rx="4" fill="#37474f"/><text x="578" y="540.0" text-anchor="start" font-family="ui-monospace,Menlo,Consolas,monospace" font-size="11" fill="#ffffff">GND</text>
<rect x="808" y="552" width="30" height="20" rx="4" fill="#eceff1"/><text x="823.0" y="566.0" text-anchor="middle" font-family="ui-monospace,Menlo,Consolas,monospace" font-size="11" fill="#263238">14</text>
<rect x="724" y="552" width="80" height="20" rx="4" fill="#37474f"/><text x="764.0" y="566.0" text-anchor="middle" font-family="ui-monospace,Menlo,Consolas,monospace" font-size="11" fill="#ffffff">GND</text>
<rect x="570" y="552" width="150" height="20" rx="4" fill="#37474f"/><text x="578" y="566.0" text-anchor="start" font-family="ui-monospace,Menlo,Consolas,monospace" font-size="11" fill="#ffffff">GND</text>
<rect x="808" y="578" width="30" height="20" rx="4" fill="#eceff1"/><text x="823.0" y="592.0" text-anchor="middle" font-family="ui-monospace,Menlo,Consolas,monospace" font-size="11" fill="#263238">13</text>
<rect x="724" y="578" width="80" height="20" rx="4" fill="#37474f"/><text x="764.0" y="592.0" text-anchor="middle" font-family="ui-monospace,Menlo,Consolas,monospace" font-size="11" fill="#ffffff">GND</text>
<rect x="570" y="578" width="150" height="20" rx="4" fill="#37474f"/><text x="578" y="592.0" text-anchor="start" font-family="ui-monospace,Menlo,Consolas,monospace" font-size="11" fill="#ffffff">GND</text>
<rect x="808" y="604" width="30" height="20" rx="4" fill="#eceff1"/><text x="823.0" y="618.0" text-anchor="middle" font-family="ui-monospace,Menlo,Consolas,monospace" font-size="11" fill="#263238">12</text>
<rect x="724" y="604" width="80" height="20" rx="4" fill="#ef6c00"/><text x="764.0" y="618.0" text-anchor="middle" font-family="ui-monospace,Menlo,Consolas,monospace" font-size="11" fill="#ffffff">P1.04</text>
<rect x="570" y="604" width="150" height="20" rx="4" fill="#ef6c00"/><text x="578" y="618.0" text-anchor="start" font-family="ui-monospace,Menlo,Consolas,monospace" font-size="11" fill="#ffffff">A0 / Serial1 TX</text>
<rect x="808" y="630" width="30" height="20" rx="4" fill="#eceff1"/><text x="823.0" y="644.0" text-anchor="middle" font-family="ui-monospace,Menlo,Consolas,monospace" font-size="11" fill="#263238">11</text>
<rect x="724" y="630" width="80" height="20" rx="4" fill="#ef6c00"/><text x="764.0" y="644.0" text-anchor="middle" font-family="ui-monospace,Menlo,Consolas,monospace" font-size="11" fill="#ffffff">P1.05</text>
<rect x="570" y="630" width="150" height="20" rx="4" fill="#ef6c00"/><text x="578" y="644.0" text-anchor="start" font-family="ui-monospace,Menlo,Consolas,monospace" font-size="11" fill="#ffffff">A1 / Serial1 RX</text>
<rect x="808" y="656" width="30" height="20" rx="4" fill="#eceff1"/><text x="823.0" y="670.0" text-anchor="middle" font-family="ui-monospace,Menlo,Consolas,monospace" font-size="11" fill="#263238">10</text>
<rect x="724" y="656" width="80" height="20" rx="4" fill="#ef6c00"/><text x="764.0" y="670.0" text-anchor="middle" font-family="ui-monospace,Menlo,Consolas,monospace" font-size="11" fill="#ffffff">P1.06</text>
<rect x="570" y="656" width="150" height="20" rx="4" fill="#ef6c00"/><text x="578" y="670.0" text-anchor="start" font-family="ui-monospace,Menlo,Consolas,monospace" font-size="11" fill="#ffffff">A2 / Serial1 RTS</text>
<rect x="808" y="682" width="30" height="20" rx="4" fill="#eceff1"/><text x="823.0" y="696.0" text-anchor="middle" font-family="ui-monospace,Menlo,Consolas,monospace" font-size="11" fill="#263238">9</text>
<rect x="724" y="682" width="80" height="20" rx="4" fill="#ef6c00"/><text x="764.0" y="696.0" text-anchor="middle" font-family="ui-monospace,Menlo,Consolas,monospace" font-size="11" fill="#ffffff">P1.07</text>
<rect x="570" y="682" width="150" height="20" rx="4" fill="#ef6c00"/><text x="578" y="696.0" text-anchor="start" font-family="ui-monospace,Menlo,Consolas,monospace" font-size="11" fill="#ffffff">A3 / Serial1 CTS</text>
<rect x="808" y="708" width="30" height="20" rx="4" fill="#eceff1"/><text x="823.0" y="722.0" text-anchor="middle" font-family="ui-monospace,Menlo,Consolas,monospace" font-size="11" fill="#263238">8</text>
<rect x="724" y="708" width="80" height="20" rx="4" fill="#37474f"/><text x="764.0" y="722.0" text-anchor="middle" font-family="ui-monospace,Menlo,Consolas,monospace" font-size="11" fill="#ffffff">GND</text>
<rect x="570" y="708" width="150" height="20" rx="4" fill="#37474f"/><text x="578" y="722.0" text-anchor="start" font-family="ui-monospace,Menlo,Consolas,monospace" font-size="11" fill="#ffffff">GND</text>
<rect x="808" y="734" width="30" height="20" rx="4" fill="#eceff1"/><text x="823.0" y="748.0" text-anchor="middle" font-family="ui-monospace,Menlo,Consolas,monospace" font-size="11" fill="#263238">7</text>
<rect x="724" y="734" width="80" height="20" rx="4" fill="#37474f"/><text x="764.0" y="748.0" text-anchor="middle" font-family="ui-monospace,Menlo,Consolas,monospace" font-size="11" fill="#ffffff">GND</text>
<rect x="570" y="734" width="150" height="20" rx="4" fill="#37474f"/><text x="578" y="748.0" text-anchor="start" font-family="ui-monospace,Menlo,Consolas,monospace" font-size="11" fill="#ffffff">GND</text>
<rect x="808" y="760" width="30" height="20" rx="4" fill="#eceff1"/><text x="823.0" y="774.0" text-anchor="middle" font-family="ui-monospace,Menlo,Consolas,monospace" font-size="11" fill="#263238">6</text>
<rect x="724" y="760" width="80" height="20" rx="4" fill="#37474f"/><text x="764.0" y="774.0" text-anchor="middle" font-family="ui-monospace,Menlo,Consolas,monospace" font-size="11" fill="#ffffff">GND</text>
<rect x="570" y="760" width="150" height="20" rx="4" fill="#37474f"/><text x="578" y="774.0" text-anchor="start" font-family="ui-monospace,Menlo,Consolas,monospace" font-size="11" fill="#ffffff">GND</text>
<rect x="808" y="786" width="30" height="20" rx="4" fill="#eceff1"/><text x="823.0" y="800.0" text-anchor="middle" font-family="ui-monospace,Menlo,Consolas,monospace" font-size="11" fill="#263238">5</text>
<rect x="724" y="786" width="80" height="20" rx="4" fill="#37474f"/><text x="764.0" y="800.0" text-anchor="middle" font-family="ui-monospace,Menlo,Consolas,monospace" font-size="11" fill="#ffffff">GND</text>
<rect x="570" y="786" width="150" height="20" rx="4" fill="#37474f"/><text x="578" y="800.0" text-anchor="start" font-family="ui-monospace,Menlo,Consolas,monospace" font-size="11" fill="#ffffff">GND</text>
<rect x="808" y="812" width="30" height="20" rx="4" fill="#eceff1"/><text x="823.0" y="826.0" text-anchor="middle" font-family="ui-monospace,Menlo,Consolas,monospace" font-size="11" fill="#263238">4</text>
<rect x="724" y="812" width="80" height="20" rx="4" fill="#37474f"/><text x="764.0" y="826.0" text-anchor="middle" font-family="ui-monospace,Menlo,Consolas,monospace" font-size="11" fill="#ffffff">GND</text>
<rect x="570" y="812" width="150" height="20" rx="4" fill="#37474f"/><text x="578" y="826.0" text-anchor="start" font-family="ui-monospace,Menlo,Consolas,monospace" font-size="11" fill="#ffffff">GND</text>
<rect x="808" y="838" width="30" height="20" rx="4" fill="#eceff1"/><text x="823.0" y="852.0" text-anchor="middle" font-family="ui-monospace,Menlo,Consolas,monospace" font-size="11" fill="#263238">3</text>
<rect x="724" y="838" width="80" height="20" rx="4" fill="#37474f"/><text x="764.0" y="852.0" text-anchor="middle" font-family="ui-monospace,Menlo,Consolas,monospace" font-size="11" fill="#ffffff">GND</text>
<rect x="570" y="838" width="150" height="20" rx="4" fill="#37474f"/><text x="578" y="852.0" text-anchor="start" font-family="ui-monospace,Menlo,Consolas,monospace" font-size="11" fill="#ffffff">GND</text>
<rect x="808" y="864" width="30" height="20" rx="4" fill="#eceff1"/><text x="823.0" y="878.0" text-anchor="middle" font-family="ui-monospace,Menlo,Consolas,monospace" font-size="11" fill="#263238">2</text>
<rect x="724" y="864" width="80" height="20" rx="4" fill="#37474f"/><text x="764.0" y="878.0" text-anchor="middle" font-family="ui-monospace,Menlo,Consolas,monospace" font-size="11" fill="#ffffff">GND</text>
<rect x="570" y="864" width="150" height="20" rx="4" fill="#37474f"/><text x="578" y="878.0" text-anchor="start" font-family="ui-monospace,Menlo,Consolas,monospace" font-size="11" fill="#ffffff">GND</text>
<rect x="808" y="890" width="30" height="20" rx="4" fill="#eceff1"/><text x="823.0" y="904.0" text-anchor="middle" font-family="ui-monospace,Menlo,Consolas,monospace" font-size="11" fill="#263238">1</text>
<rect x="724" y="890" width="80" height="20" rx="4" fill="#37474f"/><text x="764.0" y="904.0" text-anchor="middle" font-family="ui-monospace,Menlo,Consolas,monospace" font-size="11" fill="#ffffff">GND</text>
<rect x="570" y="890" width="150" height="20" rx="4" fill="#37474f"/><text x="578" y="904.0" text-anchor="start" font-family="ui-monospace,Menlo,Consolas,monospace" font-size="11" fill="#ffffff">GND</text>
<text x="24" y="940" font-size="12" font-weight="700" fill="#263238">범례</text>
<rect x="24" y="954" width="26" height="20" rx="4" fill="#c62828"/><text x="37.0" y="968.0" text-anchor="middle" font-family="ui-monospace,Menlo,Consolas,monospace" font-size="11" fill="#ffffff"></text>
<text x="58" y="968" font-size="11" fill="#37474f">전원</text>
<rect x="219" y="954" width="26" height="20" rx="4" fill="#37474f"/><text x="232.0" y="968.0" text-anchor="middle" font-family="ui-monospace,Menlo,Consolas,monospace" font-size="11" fill="#ffffff"></text>
<text x="253" y="968" font-size="11" fill="#37474f">GND</text>
<rect x="414" y="954" width="26" height="20" rx="4" fill="#2e7d32"/><text x="427.0" y="968.0" text-anchor="middle" font-family="ui-monospace,Menlo,Consolas,monospace" font-size="11" fill="#ffffff"></text>
<text x="448" y="968" font-size="11" fill="#37474f">I2C</text>
<rect x="609" y="954" width="26" height="20" rx="4" fill="#ef6c00"/><text x="622.0" y="968.0" text-anchor="middle" font-family="ui-monospace,Menlo,Consolas,monospace" font-size="11" fill="#ffffff"></text>
<text x="643" y="968" font-size="11" fill="#37474f">UART</text>
<rect x="24" y="980" width="26" height="20" rx="4" fill="#6a1b9a"/><text x="37.0" y="994.0" text-anchor="middle" font-family="ui-monospace,Menlo,Consolas,monospace" font-size="11" fill="#ffffff"></text>
<text x="58" y="994" font-size="11" fill="#37474f">SPI</text>
<rect x="219" y="980" width="26" height="20" rx="4" fill="#1565c0"/><text x="232.0" y="994.0" text-anchor="middle" font-family="ui-monospace,Menlo,Consolas,monospace" font-size="11" fill="#ffffff"></text>
<text x="253" y="994" font-size="11" fill="#37474f">아날로그</text>
<rect x="414" y="980" width="26" height="20" rx="4" fill="#00838f"/><text x="427.0" y="994.0" text-anchor="middle" font-family="ui-monospace,Menlo,Consolas,monospace" font-size="11" fill="#ffffff"></text>
<text x="448" y="994" font-size="11" fill="#37474f">온보드 LED/버튼</text>
<rect x="609" y="980" width="26" height="20" rx="4" fill="#9e9e9e"/><text x="622.0" y="994.0" text-anchor="middle" font-family="ui-monospace,Menlo,Consolas,monospace" font-size="11" fill="#ffffff"></text>
<text x="643" y="994" font-size="11" fill="#37474f">보드가 점유</text>
<rect x="24" y="1006" width="26" height="20" rx="4" fill="#eceff1"/><text x="37.0" y="1020.0" text-anchor="middle" font-family="ui-monospace,Menlo,Consolas,monospace" font-size="11" fill="#263238"></text>
<text x="58" y="1020" font-size="11" fill="#37474f">범용 GPIO</text>
<rect x="219" y="1006" width="26" height="20" rx="4" fill="#eceff1" stroke="#90a4ae" stroke-width="1" stroke-dasharray="3 2"/><text x="232.0" y="1020.0" text-anchor="middle" font-family="ui-monospace,Menlo,Consolas,monospace" font-size="11" fill="#78909c"></text>
<text x="253" y="1020" font-size="11" fill="#37474f">미연결</text>
</svg>